<svg xmlns="http://www.w3.org/2000/svg" viewBox="0 0 32 32" width="32" height="32">
  <!-- Background circle -->
  <circle cx="16" cy="16" r="15" fill="#E6DCC8" stroke="#9BAE9B" stroke-width="0.5"/>
  
  <!-- Pencil sketch barn with rough, hand-drawn style -->
  <g transform="translate(16, 16)">
    <!-- Foundation sketchy lines -->
    <path d="M-9,6 L-8.8,6.1 L8.8,6 L9,5.9" 
          stroke="#7C766C" stroke-width="0.8" fill="none" 
          stroke-linecap="round" opacity="0.9"/>
    <path d="M-9,6.5 L9,6.5" 
          stroke="#7C766C" stroke-width="0.5" fill="none" 
          stroke-linecap="round" opacity="0.6"
          stroke-dasharray="0.5,0.3"/>
    
    <!-- Left wall sketchy -->
    <path d="M-8,6 L-7.9,-2 L-8.1,-2.1 L-7.8,-2" 
          stroke="#7C766C" stroke-width="0.8" fill="none" 
          stroke-linecap="round" opacity="0.9"/>
    <path d="M-7.5,5.8 L-7.4,-1.8" 
          stroke="#7C766C" stroke-width="0.4" fill="none" 
          stroke-linecap="round" opacity="0.5"/>
    
    <!-- Right wall sketchy -->
    <path d="M8,6 L7.9,-2 L8.1,-2.1 L7.8,-1.9" 
          stroke="#7C766C" stroke-width="0.8" fill="none" 
          stroke-linecap="round" opacity="0.9"/>
    <path d="M7.5,5.9 L7.6,-1.9" 
          stroke="#7C766C" stroke-width="0.4" fill="none" 
          stroke-linecap="round" opacity="0.5"/>
    
    <!-- Roof with multiple sketch lines for texture -->
    <path d="M-10,-2 L-9.8,-2.2 L-4,-7 L-3.8,-7.2 L0,-8.5 L0.2,-8.4 L4,-7 L4.2,-6.8 L9.8,-2.1 L10,-2" 
          stroke="#8E4B35" stroke-width="0.8" fill="none" 
          stroke-linecap="round" opacity="0.9"/>
    <path d="M-9.5,-2.5 L0,-8 L9.5,-2.5" 
          stroke="#8E4B35" stroke-width="0.4" fill="none" 
          stroke-linecap="round" opacity="0.5"/>
    <path d="M-4,-6.8 L4,-6.8" 
          stroke="#8E4B35" stroke-width="0.6" fill="none" 
          stroke-linecap="round" opacity="0.7"/>
    
    <!-- Barn doors with cross-hatch shading -->
    <path d="M-4,6 L-4.1,0 L-3.9,0.1 L-4,0" 
          stroke="#7C766C" stroke-width="0.6" fill="none" 
          stroke-linecap="round" opacity="0.8"/>
    <path d="M-1,6 L-0.9,0 L-1.1,0.1" 
          stroke="#7C766C" stroke-width="0.6" fill="none" 
          stroke-linecap="round" opacity="0.8"/>
    <path d="M1,6 L0.9,0 L1.1,0.1" 
          stroke="#7C766C" stroke-width="0.6" fill="none" 
          stroke-linecap="round" opacity="0.8"/>
    <path d="M4,6 L3.9,0 L4.1,0.1 L4,0" 
          stroke="#7C766C" stroke-width="0.6" fill="none" 
          stroke-linecap="round" opacity="0.8"/>
    
    <!-- X-braces on doors (sketchy) -->
    <path d="M-3.8,1 L-1.2,5" 
          stroke="#7C766C" stroke-width="0.4" fill="none" 
          stroke-linecap="round" opacity="0.6"/>
    <path d="M-1.2,1 L-3.8,5" 
          stroke="#7C766C" stroke-width="0.4" fill="none" 
          stroke-linecap="round" opacity="0.6"/>
    <path d="M1.2,1 L3.8,5" 
          stroke="#7C766C" stroke-width="0.4" fill="none" 
          stroke-linecap="round" opacity="0.6"/>
    <path d="M3.8,1 L1.2,5" 
          stroke="#7C766C" stroke-width="0.4" fill="none" 
          stroke-linecap="round" opacity="0.6"/>
    
    <!-- Loft window (sketchy with cross-hatch) -->
    <path d="M-1.5,-4 L1.5,-4 L1.5,-5.5 L-1.5,-5.5 Z" 
          stroke="#7C766C" stroke-width="0.5" fill="none" 
          stroke-linecap="round" opacity="0.8"/>
    <path d="M0,-4 L0,-5.5" 
          stroke="#7C766C" stroke-width="0.3" fill="none" 
          stroke-linecap="round" opacity="0.6"/>
    <path d="M-1.5,-4.75 L1.5,-4.75" 
          stroke="#7C766C" stroke-width="0.3" fill="none" 
          stroke-linecap="round" opacity="0.6"/>
    
    <!-- Extra sketch lines for texture -->
    <path d="M-6,4 L-5.8,4.1" 
          stroke="#7C766C" stroke-width="0.3" fill="none" 
          stroke-linecap="round" opacity="0.4"/>
    <path d="M6,4 L6.2,3.9" 
          stroke="#7C766C" stroke-width="0.3" fill="none" 
          stroke-linecap="round" opacity="0.4"/>
    <path d="M-2,-3 L-1.8,-3.1" 
          stroke="#8E4B35" stroke-width="0.3" fill="none" 
          stroke-linecap="round" opacity="0.4"/>
    <path d="M2,-3 L2.2,-2.9" 
          stroke="#8E4B35" stroke-width="0.3" fill="none" 
          stroke-linecap="round" opacity="0.4"/>
    
    <!-- Rough ground line sketches -->
    <path d="M-11,7 L-10.8,6.8 L-6,6.9 L-2,7.1 L2,6.9 L6,7 L10.8,6.8 L11,7" 
          stroke="#9BAE9B" stroke-width="0.4" fill="none" 
          stroke-linecap="round" opacity="0.5"/>
    <path d="M-10,7.3 L10,7.3" 
          stroke="#9BAE9B" stroke-width="0.2" fill="none" 
          stroke-linecap="round" opacity="0.3"
          stroke-dasharray="1,0.5"/>
  </g>
</svg>